<svg width="24.999999999999996" height="10" xmlns="http://www.w3.org/2000/svg">

 <g>
  <title>background</title>
  <rect fill="none" id="canvas_background" height="12" width="27" y="-1" x="-1"/>
 </g>
 <g>
  <title>Layer 1</title>
  <path stroke="null" fill="#ffffff" id="svg_1" d="m5.617623,1.137643c-0.003216,0.001254 -0.007075,0.003135 -0.01029,0.005016l-4.609981,0.852749c-0.078462,0.014422 -0.135058,0.08214 -0.133772,0.160517l0,5.989306c-0.001286,0.078378 0.05531,0.146096 0.133772,0.160517l4.609981,0.852749c0.047592,0.008778 0.097113,-0.003135 0.135058,-0.033232c0.037302,-0.030097 0.059811,-0.074616 0.060454,-0.122269l0,-0.802587l2.798917,0c0.180077,0 0.329284,-0.145469 0.329284,-0.321035l0,-5.457593c0,-0.175566 -0.149207,-0.321035 -0.329284,-0.321035l-2.798917,0l0,-0.802587c0.000643,-0.046399 -0.019937,-0.090291 -0.055309,-0.121015c-0.035372,-0.030724 -0.082964,-0.045146 -0.129913,-0.039502zm-0.144062,0.351132l0,0.697248c-0.021866,0.044519 -0.021866,0.095934 0,0.140453l0,5.68332c-0.004502,0.021319 -0.004502,0.043892 0,0.06521l0,0.737377l-4.280697,-0.797571l0,-5.728466l4.280697,-0.797571zm0.329284,0.933008l2.798917,0l0,5.457593l-2.798917,0l0,-0.802587l0.658569,0l0,-0.321035l-0.658569,0l0,-0.963105l0.658569,0l0,-0.321035l-0.658569,0l0,-0.802587l0.658569,0l0,-0.321035l-0.658569,0l0,-0.802587l0.658569,0l0,-0.321035l-0.658569,0l0,-0.802587zm0.987853,0.802587l0,0.321035l1.317138,0l0,-0.321035l-1.317138,0zm-4.826074,0.431391l0.900387,1.499835l-0.982708,1.499835l0.823211,0l0.535087,-0.968121c0.037302,-0.093426 0.061741,-0.164907 0.072031,-0.210679l0.005145,0c0.021223,0.097815 0.041804,0.16428 0.061741,0.200647l0.535087,0.978153l0.818066,0l-0.946693,-1.514883l0.920967,-1.484786l-0.77176,0l-0.488782,0.887862c-0.046949,0.115999 -0.080392,0.207544 -0.097756,0.265857l-0.005145,0c-0.027012,-0.097815 -0.057882,-0.184971 -0.092611,-0.255825l-0.442476,-0.897894l-0.843791,0zm4.826074,0.692231l0,0.321035l1.317138,0l0,-0.321035l-1.317138,0zm0,1.123622l0,0.321035l1.317138,0l0,-0.321035l-1.317138,0zm0,1.284139l0,0.321035l1.317138,0l0,-0.321035l-1.317138,0z"/>
  <text font-weight="bold" stroke="null" transform="matrix(0.7593401049092553,0,0,1.510606804932582,-6.706005928257513,-9.252566770753708) " xml:space="preserve" text-anchor="start" font-family="'Trebuchet MS', Gadget, sans-serif" font-size="4" id="svg_4" y="11.094231" x="21.250332" stroke-opacity="null" stroke-width="0" fill="#ffffff">ACCODING</text>
 </g>
</svg>