<svg width="20" height="20" xmlns="http://www.w3.org/2000/svg">

 <g>
  <title>background</title>
  <rect fill="none" id="canvas_background" height="22" width="22" y="-1" x="-1"/>
 </g>
 <g>
  <title>Layer 1</title>
  <path stroke="null" fill="#ffffff" id="svg_1" d="m10.829811,5.628144c-0.003353,0.001254 -0.007377,0.003135 -0.010731,0.005016l-4.807366,0.852749c-0.081822,0.014422 -0.140841,0.08214 -0.139499,0.160517l0,5.989306c-0.001341,0.078378 0.057678,0.146096 0.139499,0.160517l4.807366,0.852749c0.04963,0.008778 0.101271,-0.003135 0.140841,-0.033232c0.038899,-0.030097 0.062372,-0.074616 0.063043,-0.122269l0,-0.802587l2.918758,0c0.187788,0 0.343383,-0.145469 0.343383,-0.321035l0,-5.457593c0,-0.175566 -0.155596,-0.321035 -0.343383,-0.321035l-2.918758,0l0,-0.802587c0.000671,-0.046399 -0.020791,-0.090291 -0.057678,-0.121015c-0.036887,-0.030724 -0.086517,-0.045146 -0.135476,-0.039502zm-0.15023,0.351132l0,0.697248c-0.022803,0.044519 -0.022803,0.095934 0,0.140453l0,5.68332c-0.004695,0.021319 -0.004695,0.043892 0,0.06521l0,0.737377l-4.463982,-0.797571l0,-5.728466l4.463982,-0.797571zm0.343383,0.933008l2.918758,0l0,5.457593l-2.918758,0l0,-0.802587l0.686767,0l0,-0.321035l-0.686767,0l0,-0.963105l0.686767,0l0,-0.321035l-0.686767,0l0,-0.802587l0.686767,0l0,-0.321035l-0.686767,0l0,-0.802587l0.686767,0l0,-0.321035l-0.686767,0l0,-0.802587zm1.03015,0.802587l0,0.321035l1.373533,0l0,-0.321035l-1.373533,0zm-5.032711,0.431391l0.938939,1.499835l-1.024784,1.499835l0.858458,0l0.557998,-0.968121c0.038899,-0.093426 0.064384,-0.164907 0.075115,-0.210679l0.005365,0c0.022132,0.097815 0.043594,0.16428 0.064384,0.200647l0.557998,0.978153l0.853093,0l-0.987227,-1.514883l0.9604,-1.484786l-0.804805,0l-0.50971,0.887862c-0.048959,0.115999 -0.083834,0.207544 -0.101942,0.265857l-0.005365,0c-0.028168,-0.097815 -0.06036,-0.184971 -0.096577,-0.255825l-0.461421,-0.897894l-0.87992,0zm5.032711,0.692231l0,0.321035l1.373533,0l0,-0.321035l-1.373533,0zm0,1.123622l0,0.321035l1.373533,0l0,-0.321035l-1.373533,0zm0,1.284139l0,0.321035l1.373533,0l0,-0.321035l-1.373533,0z"/>
 </g>
</svg>