<svg width="20" height="20" xmlns="http://www.w3.org/2000/svg">

 <g>
  <title>background</title>
  <rect fill="none" id="canvas_background" height="22" width="22" y="-1" x="-1"/>
 </g>
 <g>
  <title>Layer 1</title>
  <path stroke="null" fill="#ffffff" id="svg_1" d="m11.56508,1.484437c-0.007484,0.002685 -0.016465,0.006711 -0.023948,0.010738l-10.728889,1.825452c-0.182606,0.030872 -0.314323,0.175834 -0.311329,0.343614l0,12.821114c-0.002994,0.16778 0.128723,0.312743 0.311329,0.343614l10.728889,1.825452c0.110762,0.018792 0.226013,-0.006711 0.314323,-0.071139c0.086813,-0.064428 0.1392,-0.159727 0.140697,-0.261738l0,-1.718072l6.513968,0c0.419097,0 0.766349,-0.311401 0.766349,-0.687229l0,-11.682891c0,-0.375828 -0.347252,-0.687229 -0.766349,-0.687229l-6.513968,0l0,-1.718072c0.001497,-0.099326 -0.0464,-0.193283 -0.128723,-0.259053c-0.082323,-0.06577 -0.193084,-0.096642 -0.302349,-0.084561zm-0.335278,0.751657l0,1.492575c-0.05089,0.095299 -0.05089,0.205363 0,0.300663l0,12.166099c-0.010478,0.045636 -0.010478,0.093957 0,0.139593l0,1.578479l-9.96254,-1.707334l0,-12.262741l9.96254,-1.707334zm0.766349,1.997259l6.513968,0l0,11.682891l-6.513968,0l0,-1.718072l1.532698,0l0,-0.687229l-1.532698,0l0,-2.061687l1.532698,0l0,-0.687229l-1.532698,0l0,-1.718072l1.532698,0l0,-0.687229l-1.532698,0l0,-1.718072l1.532698,0l0,-0.687229l-1.532698,0l0,-1.718072zm2.299048,1.718072l0,0.687229l3.065397,0l0,-0.687229l-3.065397,0zm-11.231806,0.923464l2.095486,3.210647l-2.287073,3.210647l1.915873,0l1.245317,-2.072425c0.086813,-0.199994 0.14369,-0.35301 0.167639,-0.450994l0.011974,0c0.049394,0.20939 0.09729,0.351668 0.14369,0.429518l1.245317,2.093901l1.903899,0l-2.203254,-3.242861l2.143383,-3.178434l-1.796131,0l-1.13755,1.900617c-0.109265,0.248315 -0.187097,0.444283 -0.22751,0.569111l-0.011974,0c-0.062864,-0.20939 -0.13471,-0.395962 -0.215536,-0.547636l-1.029782,-1.922093l-1.96377,0zm11.231806,1.481837l0,0.687229l3.065397,0l0,-0.687229l-3.065397,0zm0,2.405301l0,0.687229l3.065397,0l0,-0.687229l-3.065397,0zm0,2.748916l0,0.687229l3.065397,0l0,-0.687229l-3.065397,0z"/>
 </g>
</svg>